<?xml version="1.0" encoding="utf-8"?>
<!-- Generator: Adobe Illustrator 23.0.2, SVG Export Plug-In . SVG Version: 6.00 Build 0)  -->
<!DOCTYPE svg PUBLIC "-//W3C//DTD SVG 1.1//EN" "http://www.w3.org/Graphics/SVG/1.1/DTD/svg11.dtd" [
	<!ENTITY ns_extend "http://ns.adobe.com/Extensibility/1.0/">
	<!ENTITY ns_ai "http://ns.adobe.com/AdobeIllustrator/10.0/">
	<!ENTITY ns_graphs "http://ns.adobe.com/Graphs/1.0/">
	<!ENTITY ns_vars "http://ns.adobe.com/Variables/1.0/">
	<!ENTITY ns_imrep "http://ns.adobe.com/ImageReplacement/1.0/">
	<!ENTITY ns_sfw "http://ns.adobe.com/SaveForWeb/1.0/">
	<!ENTITY ns_custom "http://ns.adobe.com/GenericCustomNamespace/1.0/">
	<!ENTITY ns_adobe_xpath "http://ns.adobe.com/XPath/1.0/">
]>
<svg version="1.1" id="Layer_1" xmlns:x="&ns_extend;" xmlns:i="&ns_ai;" xmlns:graph="&ns_graphs;"
	 xmlns="http://www.w3.org/2000/svg" xmlns:xlink="http://www.w3.org/1999/xlink" x="0px" y="0px" viewBox="0 0 331.33 134"
	 style="enable-background:new 0 0 331.33 134;" xml:space="preserve">
<style type="text/css">
	.Arched_x0020_Green{fill:url(#SVGID_1_);stroke:#FFFFFF;stroke-width:0.25;stroke-miterlimit:1;}
	.st0{fill:#192B55;}
	.st1{fill:none;stroke:#192B55;}
	.st2{fill:#66C8CB;}
	.st3{fill:#FFFFFF;}
	.st4{fill:#262262;}
	.st5{font-family:'MyriadPro-Regular';}
	.st6{font-size:12px;}
	.st7{font-size:14px;}
</style>
<switch>
	<g i:extraneous="self">
		<linearGradient id="SVGID_1_" gradientUnits="userSpaceOnUse" x1="-19" y1="180.6665" x2="-18.2929" y2="179.9594">
			<stop  offset="0" style="stop-color:#20AC4B"/>
			<stop  offset="0.9831" style="stop-color:#19361A"/>
		</linearGradient>
		<g id="XMLID_1_">
			<g>
				<path class="st0" d="M310,38.17v59.05c0,5.14-5.65,9.32-12.62,9.32H33.62c-6.96,0-12.62-4.18-12.62-9.32V38.17
					c0-5.15,5.66-9.32,12.62-9.32h263.75C304.35,28.85,310,33.02,310,38.17z"/>
			</g>
			<g>
				<path class="st1" d="M310,97.22c0,5.14-5.65,9.32-12.62,9.32H33.62c-6.96,0-12.62-4.18-12.62-9.32V38.17
					c0-5.15,5.66-9.32,12.62-9.32h263.75c6.97,0,12.62,4.17,12.62,9.32V97.22z"/>
			</g>
		</g>
		<g>
			<path class="st2" d="M58.06,72.64l9.89,2.99c-0.66,2.77-1.71,5.09-3.14,6.95c-1.43,1.86-3.2,3.26-5.32,4.21
				c-2.12,0.95-4.81,1.42-8.08,1.42c-3.97,0-7.21-0.58-9.72-1.73c-2.51-1.15-4.69-3.18-6.51-6.08c-1.83-2.9-2.74-6.62-2.74-11.15
				c0-6.04,1.61-10.68,4.82-13.92c3.21-3.24,7.76-4.87,13.63-4.87c4.6,0,8.21,0.93,10.85,2.79c2.63,1.86,4.59,4.72,5.86,8.57
				l-9.96,2.22c-0.35-1.11-0.71-1.93-1.1-2.44c-0.63-0.86-1.4-1.53-2.32-1.99c-0.91-0.46-1.93-0.7-3.06-0.7
				c-2.56,0-4.52,1.03-5.88,3.08c-1.03,1.53-1.54,3.92-1.54,7.19c0,4.05,0.61,6.82,1.84,8.32c1.23,1.5,2.95,2.25,5.18,2.25
				c2.16,0,3.79-0.61,4.89-1.82C56.76,76.71,57.56,74.95,58.06,72.64z"/>
			<path class="st2" d="M69.83,61.14h10.69l5.46,17.61l5.07-17.61h9.99L90.54,89.39c-1.19,3.22-2.41,5.4-3.66,6.53
				c-1.76,1.6-4.44,2.39-8.04,2.39c-1.46,0-3.72-0.2-6.77-0.6l-0.8-7.07c1.46,0.46,3.09,0.7,4.88,0.7c1.19,0,2.16-0.27,2.9-0.82
				c0.74-0.55,1.36-1.53,1.88-2.94L69.83,61.14z"/>
			<path class="st2" d="M112.27,69.7l-9.69-1.02c0.36-1.69,0.89-3.03,1.58-4c0.69-0.97,1.68-1.81,2.98-2.53
				c0.93-0.51,2.21-0.91,3.83-1.2c1.63-0.28,3.39-0.42,5.28-0.42c3.04,0,5.48,0.17,7.32,0.51c1.84,0.34,3.38,1.05,4.61,2.13
				c0.86,0.75,1.54,1.81,2.04,3.17c0.5,1.37,0.75,2.68,0.75,3.92v11.68c0,1.25,0.08,2.22,0.24,2.93c0.16,0.71,0.5,1.61,1.03,2.7
				h-9.51c-0.38-0.68-0.63-1.2-0.75-1.56c-0.12-0.36-0.23-0.92-0.35-1.68c-1.33,1.28-2.65,2.19-3.96,2.74
				c-1.79,0.73-3.88,1.1-6.25,1.1c-3.15,0-5.55-0.73-7.18-2.19c-1.64-1.46-2.45-3.26-2.45-5.4c0-2.01,0.59-3.66,1.77-4.96
				c1.18-1.29,3.35-2.26,6.52-2.89c3.8-0.76,6.27-1.3,7.4-1.61c1.13-0.31,2.32-0.71,3.59-1.21c0-1.25-0.26-2.12-0.77-2.61
				c-0.51-0.5-1.42-0.75-2.71-0.75c-1.66,0-2.91,0.27-3.74,0.8C113.19,67.78,112.67,68.56,112.27,69.7z M121.06,75.03
				c-1.39,0.5-2.85,0.94-4.36,1.32c-2.06,0.55-3.36,1.09-3.91,1.62c-0.56,0.55-0.85,1.17-0.85,1.87c0,0.8,0.28,1.45,0.83,1.95
				c0.56,0.51,1.37,0.76,2.45,0.76c1.13,0,2.18-0.27,3.15-0.82c0.97-0.55,1.66-1.22,2.07-2c0.41-0.79,0.61-1.81,0.61-3.08V75.03z"/>
			<path class="st2" d="M137.05,61.14h9.44v4.31c1.41-1.76,2.84-3.02,4.28-3.77c1.44-0.75,3.2-1.13,5.28-1.13
				c2.81,0,5,0.83,6.59,2.5c1.59,1.67,2.38,4.25,2.38,7.73v16.81h-10.18V73.04c0-1.66-0.31-2.83-0.92-3.52
				c-0.61-0.69-1.48-1.03-2.59-1.03c-1.23,0-2.22,0.46-2.99,1.39c-0.76,0.93-1.15,2.6-1.15,5v12.7h-10.14V61.14z"/>
		</g>
		<g>
			<path class="st3" d="M188.72,74.59V67h17.43v15.56c-3.34,2.27-6.29,3.82-8.85,4.64c-2.57,0.82-5.61,1.23-9.13,1.23
				c-4.33,0-7.87-0.74-10.6-2.22c-2.73-1.48-4.85-3.68-6.35-6.6c-1.5-2.92-2.25-6.27-2.25-10.06c0-3.98,0.82-7.45,2.47-10.4
				c1.64-2.95,4.05-5.18,7.22-6.71c2.47-1.18,5.8-1.77,9.99-1.77c4.03,0,7.05,0.37,9.05,1.1c2,0.73,3.66,1.86,4.98,3.4
				c1.32,1.54,2.31,3.48,2.98,5.84l-10.88,1.94c-0.45-1.38-1.21-2.43-2.28-3.16c-1.07-0.73-2.44-1.1-4.1-1.1
				c-2.47,0-4.44,0.86-5.91,2.58c-1.47,1.72-2.2,4.44-2.2,8.16c0,3.95,0.74,6.77,2.23,8.47c1.49,1.69,3.56,2.54,6.21,2.54
				c1.26,0,2.46-0.18,3.61-0.55c1.14-0.36,2.46-0.99,3.93-1.87v-3.44H188.72z"/>
			<path class="st3" d="M221.42,69.94l-9.69-1.02c0.37-1.69,0.89-3.03,1.58-4c0.69-0.97,1.68-1.81,2.98-2.53
				c0.93-0.51,2.21-0.91,3.84-1.2c1.63-0.28,3.39-0.42,5.28-0.42c3.04,0,5.48,0.17,7.32,0.51c1.84,0.34,3.38,1.05,4.61,2.13
				c0.86,0.75,1.54,1.81,2.04,3.17c0.5,1.37,0.75,2.68,0.75,3.92v11.68c0,1.25,0.08,2.22,0.24,2.93c0.16,0.71,0.5,1.61,1.03,2.7
				h-9.51c-0.38-0.68-0.63-1.2-0.75-1.56c-0.12-0.36-0.23-0.92-0.35-1.68c-1.33,1.28-2.65,2.19-3.96,2.74
				c-1.79,0.73-3.88,1.1-6.25,1.1c-3.15,0-5.55-0.73-7.18-2.19c-1.64-1.46-2.45-3.26-2.45-5.4c0-2.01,0.59-3.66,1.77-4.96
				c1.18-1.29,3.35-2.26,6.53-2.89c3.8-0.76,6.27-1.3,7.4-1.61c1.13-0.31,2.32-0.71,3.59-1.21c0-1.25-0.26-2.12-0.77-2.61
				c-0.51-0.5-1.42-0.75-2.71-0.75c-1.66,0-2.91,0.27-3.74,0.8C222.34,68.01,221.82,68.79,221.42,69.94z M230.21,75.26
				c-1.39,0.5-2.85,0.94-4.36,1.32c-2.06,0.55-3.36,1.09-3.91,1.62c-0.56,0.55-0.85,1.17-0.85,1.87c0,0.8,0.28,1.45,0.83,1.95
				c0.56,0.51,1.37,0.76,2.45,0.76c1.13,0,2.18-0.27,3.15-0.82c0.97-0.55,1.66-1.22,2.07-2c0.41-0.79,0.61-1.81,0.61-3.08V75.26z"/>
			<path class="st3" d="M257.55,51.31v10.06h5.58v7.42h-5.58v9.37c0,1.13,0.11,1.87,0.32,2.24c0.33,0.56,0.91,0.85,1.74,0.85
				c0.75,0,1.79-0.21,3.14-0.65l0.75,7c-2.51,0.55-4.85,0.82-7.02,0.82c-2.52,0-4.38-0.32-5.58-0.97c-1.2-0.65-2.08-1.63-2.65-2.95
				c-0.57-1.32-0.86-3.45-0.86-6.4v-9.3h-3.74v-7.42h3.74v-4.86L257.55,51.31z"/>
			<path class="st3" d="M297.32,77.11H277c0.18,1.63,0.62,2.84,1.32,3.64c0.98,1.15,2.26,1.72,3.83,1.72c1,0,1.94-0.25,2.84-0.75
				c0.55-0.31,1.14-0.87,1.77-1.67l9.99,0.92c-1.53,2.66-3.37,4.56-5.53,5.71c-2.16,1.15-5.25,1.73-9.29,1.73
				c-3.5,0-6.26-0.49-8.27-1.48c-2.01-0.99-3.67-2.56-4.99-4.71c-1.32-2.15-1.98-4.68-1.98-7.58c0-4.13,1.32-7.48,3.97-10.04
				c2.65-2.56,6.3-3.83,10.97-3.83c3.79,0,6.77,0.57,8.96,1.72c2.19,1.15,3.86,2.81,5.01,4.98c1.15,2.18,1.72,5.01,1.72,8.49V77.11z
				 M287.01,72.25c-0.2-1.96-0.73-3.36-1.58-4.21c-0.85-0.85-1.98-1.27-3.37-1.27c-1.61,0-2.9,0.64-3.86,1.92
				c-0.62,0.8-1.01,1.98-1.17,3.56H287.01z"/>
		</g>
		<text transform="matrix(1 0 0 1 49 118.6665)"><tspan x="0" y="0" class="st4 st5 st6">              </tspan><tspan x="35.61" y="0" class="st4 st5 st7">Amazon S3 Glacier Connector</tspan></text>
	</g>
</switch>
</svg>
